<svg width="25" height="25" viewBox="0 0 25 25" fill="none" xmlns="http://www.w3.org/2000/svg">
<circle opacity="0.4" cx="12.5" cy="12.5" r="12.5" fill="#DDF1B4"/>
<g clip-path="url(#clip0_63593_4107)">
<path d="M14.582 12.5C16.0195 12.5 17.1862 11.3333 17.1862 9.89584C17.1862 8.45834 16.0195 7.29167 14.582 7.29167C13.1445 7.29167 11.9779 8.45834 11.9779 9.89584C11.9779 11.3333 13.1445 12.5 14.582 12.5ZM17.4206 15.4167C17.2174 15.2083 16.9622 15.1042 16.6654 15.1042H13.0195L11.9362 14.724L12.1081 14.2344L13.0195 14.5833H14.4779C14.6602 14.5833 14.806 14.5104 14.9258 14.3906C15.0456 14.2708 15.1029 14.125 15.1029 13.9635C15.1029 13.6823 14.9674 13.4896 14.6966 13.3802L10.9102 11.9792H9.89453V16.6667L13.5404 17.7083L17.7227 16.1458C17.7279 15.8698 17.6237 15.625 17.4206 15.4167Z" fill="#B7EB4A"/>
<path d="M6.76172 11.9792H8.85339V17.7083H6.76172V11.9792Z" fill="#8FD004"/>
</g>
<defs>
<clipPath id="clip0_63593_4107">
<rect width="12.5" height="12.5" fill="white" transform="translate(6.25 6.25)"/>
</clipPath>
</defs>
</svg>
